<svg xmlns="http://www.w3.org/2000/svg" xmlns:xlink="http://www.w3.org/1999/xlink" preserveAspectRatio="xMidYMid" version="1.1" viewBox="0 0 40 40" height="40" width="40">
  <defs>
    <linearGradient
            x1="0"
            y1="0.5"
            x2="1"
            y2="0.5"
            id="linearGradient-1">
      <stop
              stop-color="#4F4F4F"
              offset="0%"
              id="stop187" />
      <stop
              stop-color="#000000"
              offset="100%"
              id="stop189" />
    </linearGradient>
    <linearGradient
            x1="0"
            y1="0.5"
            x2="1"
            y2="0.5"
            id="linearGradient-2">
      <stop
              stop-color="#C40000"
              offset="0%"
              id="stop192" />
      <stop
              stop-color="#FF0000"
              offset="100%"
              id="stop194" />
    </linearGradient>
    <linearGradient
            gradientUnits="userSpaceOnUse"
            gradientTransform="scale(1.6329932,0.61237244)"
            y2="444.17413"
            x2="156.76733"
            y1="444.17413"
            x1="0"
            id="linearGradient229"
            xlink:href="#linearGradient-1" />
    <linearGradient
            gradientUnits="userSpaceOnUse"
            gradientTransform="scale(1.6329932,0.61237244)"
            y2="235.15102"
            x2="156.76733"
            y1="235.15102"
            x1="0"
            id="linearGradient231"
            xlink:href="#linearGradient-1" />
    <linearGradient
            gradientUnits="userSpaceOnUse"
            gradientTransform="scale(1.2649111,0.79056942)"
            y2="263.1015"
            x2="202.38577"
            y1="263.1015"
            x1="0"
            id="linearGradient233"
            xlink:href="#linearGradient-2" />
    <linearGradient
            gradientUnits="userSpaceOnUse"
            gradientTransform="scale(1.2649111,0.79056942)"
            y2="101.19289"
            x2="202.38577"
            y1="101.19289"
            x1="0"
            id="linearGradient235"
            xlink:href="#linearGradient-2" />
    <linearGradient
            gradientUnits="userSpaceOnUse"
            gradientTransform="scale(1.2649111,0.79056942)"
            y2="425.01013"
            x2="202.38577"
            y1="425.01013"
            x1="0"
            id="linearGradient237"
            xlink:href="#linearGradient-2" />
  </defs>
  <g
          transform="matrix(0.12331927,0,0,0.12331927,2.0352162,1.7354341)"
          id="g110">
    <path
            id="path106"
            fill="#00A818"
            d="M 129.34987,0 C 57.857638,0 0,58.017778 0,129.70789 0,192.82663 45.120779,245.27194 104.66478,256.94044 v 37.13012 C 182.07797,282.36713 250.62266,220.74605 255.73753,139.85679 258.81626,91.168235 234.60745,41.463104 193.77796,17.32739 191.4403,15.945522 189.06525,14.573683 186.61928,13.366844 184.12695,12.137127 181.56764,10.93862 178.9669,9.9013658 178.14135,9.5550699 177.33244,9.2409241 176.4984,8.9112292 174.22692,8.0703934 171.93491,7.1235479 169.58657,6.4358878 156.92942,2.2525536 143.39912,0 129.34987,0 Z" />
    <path
            id="path108"
            fill="#FFFFFF"
            d="m 156.14643,47.927068 c -4.43381,-0.455771 -9.1026,1.091366 -12.36766,4.960754 -2.37459,3.174883 -3.85871,6.250551 -5.44177,9.425433 -4.74918,11.11209 -3.16612,23.017901 3.95765,31.748828 11.08142,-2.381162 20.48084,-9.47504 25.23002,-20.58713 1.58306,-3.174883 2.47353,-7.242702 2.47353,-10.417584 0.49471,-8.433283 -6.4621,-14.370686 -13.85177,-15.130301 z m -57.633281,0.744113 c -7.22735,0.689855 -14.099126,6.448981 -14.099126,14.386188 0,3.174882 0.890468,7.242701 2.47353,10.417584 4.749182,11.11209 14.890657,18.205968 25.972077,20.58713 6.33224,-8.730927 7.96477,-20.636738 3.21559,-31.748828 -1.58306,-3.174882 -3.06718,-6.300158 -5.44177,-8.68132 -3.26506,-3.869388 -7.78389,-5.374667 -12.120301,-4.960754 z M 59.67871,86.86899 c -12.481672,0.642358 -18.056777,16.37049 -7.667946,24.55573 3.16612,2.38117 6.233299,4.11743 9.399419,5.70487 11.081418,4.76233 23.894308,3.12528 33.392671,-3.22449 C 92.428262,103.58673 84.364553,94.111691 73.283131,89.349367 69.325481,87.761926 66.10989,86.86899 62.15224,86.86899 c -0.890469,-0.09922 -1.64142,-0.04286 -2.47353,0 z m 121.94509,48.11932 c -7.25055,-0.13954 -14.59384,1.9843 -20.53031,5.9529 2.37459,10.31837 10.4383,19.79341 21.51972,24.55574 3.95765,1.58744 7.17324,2.48037 11.13089,2.48037 14.24754,0.79372 21.2229,-16.86656 10.14148,-24.80377 -3.16612,-2.38116 -6.2333,-3.86939 -9.39942,-5.45683 -4.15553,-1.78587 -8.51204,-2.6447 -12.86236,-2.72841 z m -108.093316,0.74411 c -4.350323,0.0837 -8.706829,0.94254 -12.862362,2.72841 -3.95765,1.58745 -7.024829,3.32371 -9.399418,5.70487 -10.289891,8.73093 -3.364002,25.34946 10.883536,24.55574 3.95765,0 7.964772,-0.89294 11.130891,-2.48038 11.081422,-4.76232 18.947249,-14.23737 20.530311,-24.55573 -5.936476,-3.96861 -13.032417,-6.09243 -20.282958,-5.95291 z m 40.071206,24.3077 c -11.08142,2.38116 -20.480838,9.47504 -25.23002,20.58713 -1.583058,3.17488 -2.47353,6.99466 -2.47353,10.16954 -0.79153,13.49326 17.56207,20.73596 25.47737,10.41759 2.37459,-3.17489 3.85871,-6.25055 5.44177,-9.42544 4.74918,-10.31836 3.11665,-22.22418 -3.21559,-31.74882 z m 29.43502,0.74411 c -6.33224,8.73093 -7.96477,20.63674 -3.21559,31.74883 1.58306,3.17488 3.06718,6.30016 5.44177,8.68132 8.70683,9.52465 27.01096,2.48037 26.21943,-9.42544 0,-3.17488 -0.89047,-7.2427 -2.47353,-10.41758 -4.74918,-11.11209 -14.89066,-18.20597 -25.97208,-20.58713 z" />
  </g>
  <g
          id="layer1">
    <g
            transform="matrix(0.065,0,0,0.065,21,20)"
            id="g209">
      <path
              d="M 127.999,0 C 57.423,0 0,57.423 0,128.001 0,198.585 57.423,256.005 127.999,256.005 198.577,256.005 256,198.585 256,128.001 256,57.423 198.577,0 127.999,0"
              id="path8"
              style="fill:#ffffff" />
      <path
              d="m 123.318,130.303 c -1.15,2.492 -2.419,5.292 -3.733,8.272 -4.645,10.524 -9.789,23.33 -11.668,31.534 -0.675,2.922 -1.093,6.543 -1.085,10.558 0,1.588 0.085,3.257 0.22,4.957 6.567,2.413 13.66,3.74 21.067,3.753 6.743,-0.013 13.221,-1.127 19.284,-3.143 -1.425,-1.303 -2.785,-2.692 -4.023,-4.257 -8.22,-10.482 -12.806,-25.844 -20.062,-51.674"
              id="path10"
              style="fill:#91dc47" />
      <path
              d="m 92.97,78.225 c -15.699,11.064 -25.972,29.312 -26.011,49.992 0.039,20.371 10.003,38.383 25.307,49.493 3.754,-15.637 13.164,-29.955 27.275,-58.655 -0.838,-2.302 -1.793,-4.822 -2.862,-7.469 -3.909,-9.806 -9.551,-21.194 -14.586,-26.351 -2.567,-2.694 -5.682,-5.022 -9.123,-7.01"
              id="path12"
              style="fill:#91dc47" />
      <path
              d="m 181.394,198.367 c -8.1,-1.015 -14.785,-2.24 -20.633,-4.303 -9.836,4.884 -20.913,7.643 -32.642,7.643 -40.584,0 -73.483,-32.894 -73.488,-73.49 0,-22.027 9.704,-41.773 25.056,-55.24 -4.106,-0.992 -8.388,-1.571 -12.762,-1.563 -21.562,0.203 -44.323,12.136 -53.799,44.363 -0.886,4.691 -0.675,8.238 -0.675,12.442 0,63.885 51.791,115.676 115.671,115.676 39.122,0 73.682,-19.439 94.611,-49.169 -11.32,2.821 -22.206,4.17 -31.528,4.199 -3.494,0 -6.774,-0.187 -9.811,-0.558"
              id="path14"
              style="fill:#63b132" />
      <path
              d="m 159.658,175.953 c 0.714,0.354 2.333,0.932 4.586,1.571 15.157,-11.127 25.007,-29.05 25.046,-49.307 l -0.006,0 c -0.057,-33.771 -27.386,-61.096 -61.165,-61.163 -6.714,0.013 -13.164,1.121 -19.203,3.122 12.419,14.156 18.391,34.386 24.168,56.515 0.003,0.01 0.008,0.018 0.01,0.026 0.011,0.018 1.848,6.145 5.002,14.274 3.132,8.118 7.594,18.168 12.46,25.492 3.195,4.908 6.709,8.435 9.102,9.47"
              id="path16"
              style="fill:#90b4fe" />
      <path
              d="m 128.122,12.541 c -38.744,0 -73.016,19.073 -94.008,48.318 10.925,-6.842 22.08,-9.31 31.815,-9.222 13.446,0.039 24.017,4.208 29.089,7.06 1.225,0.706 2.388,1.466 3.527,2.247 9.05,-3.986 19.05,-6.215 29.574,-6.215 40.589,0.005 73.493,32.899 73.499,73.488 l -0.006,0 c 0,20.464 -8.37,38.967 -21.863,52.291 3.312,0.371 6.844,0.602 10.451,0.584 12.811,0.006 26.658,-2.821 37.039,-11.552 6.769,-5.702 12.44,-14.051 15.585,-26.569 0.615,-4.835 0.969,-9.75 0.969,-14.752 0,-63.882 -51.786,-115.678 -115.671,-115.678"
              id="path18"
              style="fill:#5881d8" />
    </g>
  </g>
</svg>
